<svg width="500" height="500" viewBox="0 0 500 500" fill="none" xmlns="http://www.w3.org/2000/svg">
<rect width="500" height="500" rx="25" fill="#111111"/>
<g filter="url(#filter0_d_3_4)">
<path d="M228.787 95.5547C230.74 95.2292 232.856 94.9036 235.135 94.5781C237.739 94.5781 240.18 94.2526 242.459 93.6016C245.063 93.276 247.342 92.625 249.295 91.6484C251.574 90.6719 253.201 89.207 254.178 87.2539C252.876 83.6732 252.225 81.7201 252.225 81.3945C252.225 81.3945 252.062 80.7435 251.736 79.4414C250.109 78.1393 248.156 77.3255 245.877 77C243.598 77 241.808 76.1862 240.506 74.5586C237.902 76.1862 234.972 77 231.717 77C228.462 76.6745 225.369 76.8372 222.439 77.4883C220.161 77.8138 217.719 78.3021 215.115 78.9531C212.511 79.9297 210.07 79.7669 207.791 78.4648C206.163 79.1159 204.373 79.7669 202.42 80.418C200.792 81.069 199.002 81.2318 197.049 80.9062C196.072 81.5573 195.258 82.2083 194.607 82.8594C193.956 83.8359 193.305 84.8125 192.654 85.7891C191.352 85.7891 189.399 85.6263 186.795 85.3008C184.516 85.3008 183.051 85.7891 182.4 86.7656C181.098 86.4401 179.959 85.9518 178.982 85.3008C178.331 84.6497 177.355 84.1615 176.053 83.8359C172.472 83.5104 170.519 83.1849 170.193 82.8594C169.868 82.5339 169.38 82.2083 168.729 81.8828C166.124 81.2318 163.357 80.9062 160.428 80.9062C157.824 80.9062 155.219 80.5807 152.615 79.9297C150.988 79.9297 149.686 79.6042 148.709 78.9531C147.732 78.6276 146.593 78.4648 145.291 78.4648C143.663 78.4648 142.036 78.6276 140.408 78.9531C139.106 79.6042 137.641 79.9297 136.014 79.9297C134.061 80.2552 132.596 80.0924 131.619 79.4414C130.643 78.7904 129.015 78.9531 126.736 79.9297C124.132 80.2552 121.365 80.2552 118.436 79.9297C115.831 79.6042 113.227 79.6042 110.623 79.9297C109.972 80.9062 109.321 81.8828 108.67 82.8594C108.019 84.1615 107.205 85.138 106.229 85.7891C107.531 89.0443 109.484 91.3229 112.088 92.625C114.692 93.9271 117.296 94.7409 119.9 95.0664C122.83 95.3919 125.271 95.3919 127.225 95.0664C129.503 95.0664 130.968 95.5547 131.619 96.5312C134.223 95.8802 137.316 95.3919 140.896 95.0664C144.803 94.7409 147.732 95.8802 149.686 98.4844C149.36 104.018 149.523 109.227 150.174 114.109C151.15 119.318 151.639 124.689 151.639 130.223C151.313 133.152 151.15 136.082 151.15 139.012C151.476 142.267 151.964 145.359 152.615 148.289C153.266 151.87 153.917 155.125 154.568 158.055C155.545 161.31 155.708 164.728 155.057 168.309C154.731 170.913 154.894 173.68 155.545 176.609C156.196 179.539 156.684 182.469 157.01 185.398C157.661 188.654 157.986 191.746 157.986 194.676C157.986 197.931 157.335 201.023 156.033 203.953C157.986 205.255 158.475 207.208 157.498 209.812C156.521 212.417 156.033 214.695 156.033 216.648C156.033 217.625 156.196 218.439 156.521 219.09C156.847 220.066 157.01 221.043 157.01 222.02C157.01 222.996 156.847 223.81 156.521 224.461C156.196 225.438 156.033 226.414 156.033 227.391C157.335 231.297 157.824 233.576 157.498 234.227C157.173 235.203 157.01 236.017 157.01 236.668C157.01 237.97 157.335 238.947 157.986 239.598C158.963 240.574 159.451 241.714 159.451 243.016C159.777 243.992 159.614 244.806 158.963 245.457C158.637 246.434 158.637 247.41 158.963 248.387C158.963 249.363 159.126 250.177 159.451 250.828C159.777 251.805 160.102 252.781 160.428 253.758C161.079 256.688 161.567 259.292 161.893 261.57C162.218 263.849 162.381 265.802 162.381 267.43C162.381 268.732 162.218 269.871 161.893 270.848C161.567 271.824 161.404 272.801 161.404 273.777C161.73 276.382 162.218 278.986 162.869 281.59C163.52 284.194 164.008 286.798 164.334 289.402C164.985 294.285 165.148 299.168 164.822 304.051C164.497 309.259 164.66 314.305 165.311 319.188C165.311 321.792 165.636 324.396 166.287 327C167.264 329.604 166.938 332.208 165.311 334.812C167.264 337.417 168.077 340.509 167.752 344.09C167.426 347.996 167.426 351.577 167.752 354.832C168.077 357.436 168.566 359.878 169.217 362.156C169.868 364.435 170.356 366.551 170.682 368.504C170.031 372.41 170.193 374.689 171.17 375.34C172.146 376.316 172.309 377.618 171.658 379.246C172.96 383.803 173.449 386.733 173.123 388.035C172.798 389.663 172.798 391.29 173.123 392.918C173.123 395.522 173.611 397.964 174.588 400.242C175.564 402.521 176.378 404.637 177.029 406.59C176.378 406.915 174.588 406.427 171.658 405.125C168.729 404.148 167.101 403.497 166.775 403.172C165.473 401.544 164.334 400.73 163.357 400.73C162.706 401.056 162.055 400.893 161.404 400.242C159.777 399.266 157.824 397.964 155.545 396.336C153.592 394.708 151.639 393.895 149.686 393.895C147.081 394.22 144.803 395.522 142.85 397.801C141.222 400.079 140.408 402.358 140.408 404.637C143.989 408.868 148.221 410.984 153.104 410.984C156.359 412.612 159.126 414.402 161.404 416.355C164.008 418.634 167.101 420.262 170.682 421.238C171.658 422.215 172.798 423.68 174.1 425.633C177.029 425.307 179.145 425.958 180.447 427.586C182.075 429.214 184.191 430.19 186.795 430.516C188.423 432.143 190.05 433.283 191.678 433.934C193.631 434.585 195.421 435.561 197.049 436.863C198.676 437.84 199.979 439.142 200.955 440.77C201.932 442.397 203.559 443.211 205.838 443.211C209.419 445.164 212.348 445.001 214.627 442.723C216.906 440.77 218.37 438.816 219.021 436.863C219.347 434.259 218.533 431.167 216.58 427.586C214.952 424.331 213.813 421.238 213.162 418.309C213.162 416.681 213.325 415.053 213.65 413.426C213.976 411.798 214.139 410.171 214.139 408.543C214.79 407.892 214.627 406.59 213.65 404.637C212.999 403.009 212.511 401.87 212.186 401.219C212.186 396.661 212.348 393.406 212.674 391.453C212.999 389.826 213.488 388.198 214.139 386.57C212.837 383.641 212.348 381.199 212.674 379.246C212.999 377.618 213.162 376.479 213.162 375.828C213.813 370.294 214.139 364.923 214.139 359.715C214.139 354.507 214.139 349.298 214.139 344.09C214.139 342.788 214.301 341.486 214.627 340.184C215.278 339.207 215.441 338.068 215.115 336.766C215.115 335.789 214.79 334.812 214.139 333.836C213.813 333.185 213.488 332.371 213.162 331.395C213.162 328.465 213.162 325.372 213.162 322.117C213.488 319.188 213.813 316.421 214.139 313.816C214.464 312.84 214.79 311.863 215.115 310.887C215.766 310.236 216.092 309.422 216.092 308.445C216.417 304.865 216.092 301.447 215.115 298.191C214.139 294.936 214.464 291.681 216.092 288.426C215.115 286.147 214.464 283.38 214.139 280.125C213.813 277.195 213.813 274.103 214.139 270.848C214.464 267.592 214.79 264.337 215.115 261.082C215.766 258.152 216.092 255.385 216.092 252.781C216.092 251.479 215.929 250.014 215.604 248.387C215.278 246.759 215.441 245.294 216.092 243.992C217.394 241.714 217.719 239.76 217.068 238.133C216.743 236.831 216.743 235.366 217.068 233.738C217.068 232.436 217.394 229.995 218.045 226.414C218.696 223.159 219.184 219.578 219.51 215.672C219.835 212.091 219.998 208.673 219.998 205.418C220.324 202.488 219.998 200.698 219.021 200.047C219.347 199.07 219.673 196.792 219.998 193.211C220.324 189.956 220.486 186.375 220.486 182.469C220.486 178.562 220.324 174.982 219.998 171.727C219.673 168.471 219.347 166.681 219.021 166.355C219.673 161.798 220.161 157.241 220.486 152.684C221.137 148.452 221.788 144.057 222.439 139.5C222.439 137.221 222.439 135.594 222.439 134.617C222.439 133.966 222.765 132.827 223.416 131.199C223.742 129.572 224.067 128.107 224.393 126.805C225.044 125.828 225.532 124.526 225.857 122.898C226.834 118.341 227.322 113.784 227.322 109.227C227.648 104.669 228.136 100.112 228.787 95.5547ZM196.072 415.867C195.096 414.891 194.445 413.589 194.119 411.961C194.119 410.333 193.305 409.194 191.678 408.543C192.003 405.939 191.515 403.66 190.213 401.707C189.236 400.079 188.423 398.126 187.771 395.848C187.446 394.22 186.958 392.43 186.307 390.477C185.981 388.523 185.818 386.57 185.818 384.617C186.469 380.711 186.469 378.27 185.818 377.293C185.493 376.642 185.33 375.828 185.33 374.852C185.005 372.898 184.679 369.806 184.354 365.574C184.028 361.668 183.54 357.273 182.889 352.391C182.563 347.833 182.238 343.439 181.912 339.207C181.587 334.975 181.424 332.371 181.424 331.395C181.424 329.767 181.587 328.465 181.912 327.488C182.238 326.512 182.4 325.372 182.4 324.07C182.4 321.466 181.912 318.862 180.936 316.258C180.285 313.654 179.796 311.375 179.471 309.422C180.122 305.841 180.122 303.562 179.471 302.586C179.145 301.609 178.982 300.47 178.982 299.168C178.657 297.866 178.657 296.564 178.982 295.262C179.308 294.285 179.471 293.146 179.471 291.844C179.471 290.542 179.308 289.24 178.982 287.938C178.982 286.635 178.982 285.333 178.982 284.031C178.657 282.729 178.657 281.59 178.982 280.613C179.308 279.637 179.471 278.66 179.471 277.684C179.471 276.056 179.308 274.591 178.982 273.289C178.982 271.987 178.982 270.685 178.982 269.383C178.331 264.5 177.355 259.617 176.053 254.734C174.751 249.852 173.774 244.969 173.123 240.086C172.798 236.505 172.635 232.111 172.635 226.902C172.96 221.694 173.774 217.299 175.076 213.719C173.449 211.115 172.96 208.348 173.611 205.418C174.262 202.814 174.425 200.21 174.1 197.605C173.449 194.35 173.286 192.397 173.611 191.746C173.937 191.421 174.1 190.932 174.1 190.281C173.123 188.003 172.96 186.538 173.611 185.887C174.262 185.236 174.425 184.259 174.1 182.957C172.798 180.353 172.146 178.562 172.146 177.586C172.472 176.935 172.635 176.284 172.635 175.633C171.984 172.703 171.495 169.773 171.17 166.844C170.844 163.914 170.356 161.147 169.705 158.543C168.729 153.986 168.403 149.591 168.729 145.359C169.054 141.453 169.054 137.384 168.729 133.152C168.403 129.246 167.752 125.014 166.775 120.457C166.124 115.9 166.775 111.831 168.729 108.25C166.775 106.297 166.775 103.53 168.729 99.9492C169.705 99.9492 171.007 100.112 172.635 100.438C174.588 100.763 176.378 101.089 178.006 101.414C179.959 101.74 181.587 101.902 182.889 101.902C184.516 102.228 185.33 102.228 185.33 101.902C187.934 102.228 190.538 102.228 193.143 101.902C196.072 101.577 198.839 100.926 201.443 99.9492C203.071 99.6237 204.536 98.9727 205.838 97.9961C207.465 97.0195 209.093 96.8568 210.721 97.5078C210.07 99.1354 209.744 100.763 209.744 102.391C209.744 104.018 209.419 105.646 208.768 107.273C209.419 110.529 209.419 113.784 208.768 117.039C208.117 120.294 207.303 123.549 206.326 126.805C205.35 130.385 204.536 133.803 203.885 137.059C203.234 140.314 203.071 143.406 203.396 146.336C203.396 147.312 203.559 148.289 203.885 149.266C204.21 150.242 204.373 151.219 204.373 152.195C203.071 158.706 202.583 163.751 202.908 167.332C203.234 171.238 202.745 174.982 201.443 178.562C203.396 181.167 204.048 184.747 203.396 189.305C202.745 194.188 202.42 198.419 202.42 202C202.42 203.628 202.583 205.092 202.908 206.395C203.234 208.022 203.396 209.65 203.396 211.277C203.071 212.579 202.583 213.719 201.932 214.695C201.281 215.672 201.443 216.648 202.42 217.625C202.094 218.927 201.606 220.229 200.955 221.531C200.63 222.833 200.792 223.973 201.443 224.949C201.118 227.879 200.63 230.809 199.979 233.738C199.327 236.993 199.49 240.086 200.467 243.016C200.141 245.62 199.979 248.061 199.979 250.34C200.304 252.618 200.141 254.734 199.49 256.688C199.49 257.664 199.165 258.478 198.514 259.129C198.188 260.105 198.025 261.082 198.025 262.059C198.676 266.29 198.839 268.895 198.514 269.871C198.188 271.173 198.025 272.475 198.025 273.777C198.025 277.684 198.514 282.078 199.49 286.961C200.467 292.169 199.979 296.564 198.025 300.145C199.653 305.678 199.816 310.724 198.514 315.281C197.212 320.164 196.723 325.21 197.049 330.418C197.049 331.395 197.374 332.534 198.025 333.836C198.676 335.464 199.002 336.766 199.002 337.742C198.676 340.672 198.188 342.625 197.537 343.602C197.212 344.578 197.049 345.229 197.049 345.555C198.025 349.786 198.188 352.391 197.537 353.367C197.212 354.344 197.049 355.483 197.049 356.785C196.723 357.762 196.723 358.738 197.049 359.715C197.374 360.691 197.7 361.831 198.025 363.133C198.025 367.039 198.188 371.434 198.514 376.316C198.839 381.199 198.351 385.594 197.049 389.5C198.351 394.057 198.839 398.615 198.514 403.172C198.514 408.055 198.839 412.775 199.49 417.332L196.072 415.867ZM353.299 409.52C352.973 407.892 351.997 406.753 350.369 406.102C348.742 405.776 347.602 404.799 346.951 403.172H341.58C341.58 400.893 341.092 398.777 340.115 396.824C339.464 394.871 338.976 392.755 338.65 390.477C338.325 386.896 338.325 383.478 338.65 380.223C339.301 376.967 339.301 373.712 338.65 370.457C338.65 368.829 338.325 367.202 337.674 365.574C337.348 364.272 337.186 362.807 337.186 361.18C336.535 357.599 336.372 354.018 336.697 350.438C337.023 346.857 336.86 343.276 336.209 339.695C335.558 337.091 335.07 334.975 334.744 333.348C334.419 332.046 334.581 330.092 335.232 327.488C336.86 326.837 338.488 326.837 340.115 327.488C341.743 328.139 343.37 328.465 344.998 328.465C347.928 327.488 350.206 327.163 351.834 327.488C353.787 328.139 355.577 328.465 357.205 328.465C359.158 328.465 360.949 328.139 362.576 327.488C364.529 326.837 366.32 327.488 367.947 329.441C371.854 329.441 374.783 329.116 376.736 328.465C378.689 328.139 380.643 327.814 382.596 327.488C382.27 325.861 382.596 324.884 383.572 324.559C384.874 324.559 385.688 324.07 386.014 323.094C386.339 322.443 385.851 321.466 384.549 320.164C383.572 319.188 383.572 317.723 384.549 315.77C381.294 312.84 379.178 311.538 378.201 311.863C377.225 312.189 376.899 311.701 377.225 310.398C363.878 312.677 350.206 313.328 336.209 312.352C335.883 310.073 335.232 307.794 334.256 305.516C333.605 303.562 333.279 301.609 333.279 299.656C333.279 298.029 333.605 296.564 334.256 295.262C334.907 294.285 335.232 292.983 335.232 291.355C335.232 288.1 335.07 284.845 334.744 281.59C334.419 278.66 334.256 275.568 334.256 272.312C334.256 270.685 334.581 269.057 335.232 267.43C335.883 266.128 336.209 264.663 336.209 263.035C336.209 262.059 336.046 260.919 335.721 259.617C335.395 258.641 335.232 257.664 335.232 256.688C335.232 255.711 335.395 254.572 335.721 253.27C336.046 252.293 336.209 251.316 336.209 250.34C336.209 248.061 335.883 245.945 335.232 243.992C334.907 242.039 335.558 239.923 337.186 237.645C336.535 233.413 336.209 230.646 336.209 229.344C336.535 228.042 337.186 226.902 338.162 225.926C337.511 220.392 336.86 215.184 336.209 210.301C335.883 205.418 335.883 200.21 336.209 194.676C335.558 191.095 335.558 188.979 336.209 188.328C337.186 188.003 337.511 187.514 337.186 186.863C335.883 180.353 335.232 175.145 335.232 171.238C335.232 167.332 335.558 163.426 336.209 159.52C336.209 158.543 336.372 157.566 336.697 156.59C337.348 155.939 337.837 155.125 338.162 154.148C338.162 152.846 337.999 151.707 337.674 150.73C337.348 149.754 337.186 148.777 337.186 147.801C337.186 143.895 336.86 141.616 336.209 140.965C335.883 140.314 335.558 139.5 335.232 138.523C334.907 136.896 334.907 134.943 335.232 132.664C335.883 130.385 336.697 128.27 337.674 126.316C338.976 124.363 340.278 122.736 341.58 121.434C342.882 120.132 344.021 119.806 344.998 120.457C345.649 117.527 347.439 114.76 350.369 112.156C353.299 109.878 354.926 108.087 355.252 106.785C359.484 105.483 361.925 104.181 362.576 102.879C363.553 101.577 364.692 100.438 365.994 99.4609C368.924 97.5078 372.179 96.3685 375.76 96.043C379.34 96.043 382.758 95.7174 386.014 95.0664C389.92 93.4388 392.036 92.7878 392.361 93.1133C393.012 93.7643 393.663 94.0898 394.314 94.0898C398.221 92.4622 401.313 91.8112 403.592 92.1367C406.196 92.7878 408.312 91.8112 409.939 89.207C410.59 87.9049 410.753 86.4401 410.428 84.8125C410.102 83.1849 409.939 81.7201 409.939 80.418C407.986 79.1159 405.87 77.9766 403.592 77C401.639 76.0234 399.523 75.5352 397.244 75.5352C396.268 75.8607 395.291 76.1862 394.314 76.5117C393.338 76.8372 392.361 77.1628 391.385 77.4883C391.059 77.4883 389.92 77.4883 387.967 77.4883C386.339 77.8138 384.386 77.9766 382.107 77.9766C379.829 78.3021 377.713 78.4648 375.76 78.4648C374.132 78.4648 373.318 78.4648 373.318 78.4648C372.667 79.4414 371.691 79.9297 370.389 79.9297C369.412 80.2552 368.598 80.9062 367.947 81.8828C366.32 81.5573 364.692 81.7201 363.064 82.3711C361.762 83.3477 360.298 83.5104 358.67 82.8594C358.995 84.8125 358.507 85.7891 357.205 85.7891C355.903 86.1146 354.601 86.1146 353.299 85.7891C352.973 87.4167 351.508 89.5326 348.904 92.1367C346.3 91.4857 344.347 90.9974 343.045 90.6719C341.743 90.3464 339.79 90.5091 337.186 91.1602C336.209 91.8112 335.07 92.9505 333.768 94.5781C332.465 96.5312 330.838 98.1589 328.885 99.4609C328.234 99.7865 327.257 99.9492 325.955 99.9492C324.653 100.275 323.839 100.763 323.514 101.414C322.212 103.693 319.77 105.646 316.189 107.273C312.934 108.901 310.818 110.203 309.842 111.18C308.54 113.784 307.238 115.249 305.936 115.574C304.959 116.225 304.145 116.876 303.494 117.527C302.843 117.853 301.704 118.829 300.076 120.457C298.449 122.085 297.472 123.224 297.146 123.875C294.868 128.107 292.101 131.688 288.846 134.617C285.916 137.872 284.777 141.29 285.428 144.871C284.777 146.824 283.963 148.777 282.986 150.73C282.01 152.684 281.196 154.637 280.545 156.59L278.592 162.938C278.592 163.914 278.755 164.891 279.08 165.867C279.406 166.844 279.568 167.658 279.568 168.309C279.894 171.889 279.894 175.145 279.568 178.074C279.568 181.004 279.894 184.096 280.545 187.352C281.196 189.305 281.033 190.281 280.057 190.281C279.08 190.607 278.592 191.583 278.592 193.211C280.545 194.839 281.521 197.768 281.521 202C281.847 206.232 282.498 209.65 283.475 212.254C281.847 216.811 281.521 219.415 282.498 220.066C283.475 220.717 284.126 221.694 284.451 222.996C285.428 227.879 285.59 232.762 284.939 237.645C284.288 242.527 283.8 247.41 283.475 252.293C283.149 253.595 283.149 254.897 283.475 256.199C283.8 257.501 283.8 258.803 283.475 260.105C283.149 261.082 282.661 262.059 282.01 263.035C281.684 264.012 281.521 264.988 281.521 265.965C281.521 266.616 281.684 267.43 282.01 268.406C282.335 269.383 282.498 270.359 282.498 271.336C282.498 272.964 282.335 274.428 282.01 275.73C282.01 277.033 282.173 278.497 282.498 280.125C282.824 283.706 282.661 286.961 282.01 289.891C281.684 292.82 281.521 296.076 281.521 299.656C281.521 301.284 281.847 302.911 282.498 304.539C283.149 306.492 283.149 308.445 282.498 310.398C280.87 310.398 279.08 310.561 277.127 310.887C275.499 311.212 273.872 311.375 272.244 311.375C271.593 311.375 270.779 311.212 269.803 310.887C268.826 310.561 267.85 310.398 266.873 310.398C262.316 312.026 259.061 312.352 257.107 311.375C255.154 310.398 253.038 310.724 250.76 312.352C248.807 310.724 247.016 310.073 245.389 310.398C244.087 311.049 242.459 311.701 240.506 312.352C236.274 313.654 233.995 314.956 233.67 316.258C233.344 317.885 232.693 319.025 231.717 319.676C232.368 321.629 233.507 322.931 235.135 323.582C236.437 324.559 237.902 325.372 239.529 326.023C243.761 327.326 246.691 327.488 248.318 326.512C250.271 325.861 253.201 325.698 257.107 326.023C258.735 326.023 260.037 326.349 261.014 327C262.316 327.651 263.781 328.139 265.408 328.465C266.059 328.79 266.873 328.628 267.85 327.977C269.152 327.651 270.128 328.139 270.779 329.441C272.732 328.139 274.686 327.651 276.639 327.977C278.592 328.628 280.545 328.139 282.498 326.512C284.451 329.116 284.939 331.883 283.963 334.812C283.312 337.742 283.149 340.509 283.475 343.113C283.475 344.09 283.637 344.904 283.963 345.555C284.614 346.531 285.102 347.508 285.428 348.484C285.753 351.089 285.753 353.693 285.428 356.297C285.428 358.901 285.428 361.505 285.428 364.109C287.055 364.76 287.544 366.388 286.893 368.992C286.567 371.596 286.567 373.549 286.893 374.852C288.52 379.083 289.171 382.013 288.846 383.641C288.52 385.268 288.195 386.896 287.869 388.523C285.265 388.198 282.498 387.547 279.568 386.57C276.964 385.594 274.36 385.431 271.756 386.082C270.454 386.082 269.314 386.245 268.338 386.57C267.361 387.221 266.385 387.547 265.408 387.547C262.804 387.547 260.363 386.733 258.084 385.105C255.805 383.478 253.364 382.501 250.76 382.176C249.132 383.803 247.667 385.919 246.365 388.523C245.389 391.128 245.877 393.569 247.83 395.848C253.038 399.103 256.782 400.893 259.061 401.219C260.363 401.544 261.502 401.382 262.479 400.73C263.455 400.405 264.594 400.242 265.896 400.242C266.873 400.242 268.501 400.405 270.779 400.73C273.383 401.382 275.825 402.033 278.104 402.684C280.708 403.335 282.986 403.986 284.939 404.637C287.218 405.288 288.846 405.939 289.822 406.59C292.101 406.59 294.705 406.753 297.635 407.078C300.564 407.404 302.843 408.543 304.471 410.496C309.354 410.171 313.911 410.984 318.143 412.938C322.374 414.891 326.932 415.867 331.814 415.867C333.442 416.518 335.558 417.495 338.162 418.797C341.092 420.099 343.37 420.262 344.998 419.285C348.253 417.658 350.044 416.355 350.369 415.379C350.695 414.402 351.183 413.589 351.834 412.938L353.299 409.52ZM318.143 183.934C318.468 184.91 318.794 185.724 319.119 186.375C319.77 187.026 319.933 188.003 319.607 189.305C319.282 190.607 318.956 191.583 318.631 192.234C318.631 193.211 318.631 194.35 318.631 195.652C318.305 198.908 318.468 202 319.119 204.93C320.096 208.185 319.77 211.44 318.143 214.695C320.096 217.625 320.584 220.88 319.607 224.461C318.956 228.042 318.631 231.46 318.631 234.715C318.631 236.342 318.794 237.645 319.119 238.621C319.77 239.923 319.607 241.388 318.631 243.016C319.607 246.596 319.77 249.689 319.119 252.293C318.794 255.223 318.468 258.152 318.143 261.082C319.119 263.361 319.445 265.639 319.119 267.918C318.794 270.197 318.631 272.475 318.631 274.754C318.956 278.66 319.445 282.404 320.096 285.984C320.747 289.891 320.91 293.797 320.584 297.703C320.584 300.307 320.258 302.749 319.607 305.027C319.282 307.306 318.956 309.747 318.631 312.352C318.631 313.328 318.794 314.305 319.119 315.281C319.445 316.258 319.607 317.397 319.607 318.699C319.607 319.676 319.445 320.652 319.119 321.629C318.794 322.605 318.631 323.745 318.631 325.047C318.631 327.651 318.956 330.092 319.607 332.371C320.584 334.975 321.235 337.579 321.561 340.184C321.886 342.137 321.886 344.09 321.561 346.043C321.235 348.322 321.235 350.438 321.561 352.391C321.886 355.32 322.374 358.087 323.025 360.691C323.676 363.621 324.165 366.551 324.49 369.48C325.467 372.41 325.792 374.852 325.467 376.805C325.141 379.083 324.979 381.199 324.979 383.152C325.304 385.431 325.63 387.71 325.955 389.988C326.606 392.267 326.281 394.546 324.979 396.824C320.096 396.499 315.864 396.173 312.283 395.848C309.028 395.522 305.773 394.546 302.518 392.918C302.843 386.408 302.192 380.06 300.564 373.875C299.262 367.69 298.449 361.342 298.123 354.832C298.123 352.553 298.123 350.763 298.123 349.461C298.449 348.484 298.611 347.345 298.611 346.043C298.611 345.066 298.449 343.764 298.123 342.137C298.123 340.835 297.798 338.719 297.146 335.789C298.449 334.487 298.937 333.022 298.611 331.395C298.286 329.767 298.123 328.139 298.123 326.512V313.816C297.798 312.189 297.309 310.561 296.658 308.934C296.333 307.306 296.17 305.678 296.17 304.051C296.17 302.749 296.495 301.121 297.146 299.168C297.798 297.215 298.123 295.75 298.123 294.773C297.798 294.122 297.146 293.634 296.17 293.309C295.193 292.983 295.519 291.681 297.146 289.402C296.821 288.426 296.495 287.449 296.17 286.473C295.844 285.496 295.519 284.357 295.193 283.055C296.495 275.568 297.146 269.546 297.146 264.988C297.472 260.431 297.96 255.874 298.611 251.316C298.937 249.689 299.262 247.898 299.588 245.945C300.239 244.318 300.564 242.69 300.564 241.062C300.564 239.109 300.239 236.993 299.588 234.715C298.937 232.762 298.611 230.646 298.611 228.367C298.937 227.065 299.262 225.763 299.588 224.461C300.239 223.159 300.564 221.857 300.564 220.555C300.564 218.927 300.239 217.462 299.588 216.16C299.262 214.858 298.937 213.556 298.611 212.254C298.611 210.626 298.611 209.161 298.611 207.859C298.937 206.883 298.937 205.581 298.611 203.953C298.611 202.977 298.449 202 298.123 201.023C297.798 200.372 297.472 199.559 297.146 198.582C296.495 195.978 296.333 193.374 296.658 190.77C296.984 188.165 296.821 185.561 296.17 182.957C294.542 177.423 294.217 173.354 295.193 170.75C296.495 168.146 296.821 165.542 296.17 162.938C297.798 161.31 298.611 159.52 298.611 157.566C298.611 155.613 298.937 153.823 299.588 152.195C300.239 151.219 300.89 150.405 301.541 149.754C302.192 149.103 302.843 148.452 303.494 147.801C304.145 146.499 305.122 144.546 306.424 141.941C308.051 139.337 308.865 137.221 308.865 135.594C311.469 135.594 313.097 134.617 313.748 132.664C314.399 131.036 315.864 129.897 318.143 129.246C319.445 138.686 319.933 147.801 319.607 156.59C319.282 165.379 318.794 174.493 318.143 183.934Z" fill="white"/>
</g>
<defs>
<filter id="filter0_d_3_4" x="106.229" y="74.5586" width="311.688" height="375.582" filterUnits="userSpaceOnUse" color-interpolation-filters="sRGB">
<feFlood flood-opacity="0" result="BackgroundImageFix"/>
<feColorMatrix in="SourceAlpha" type="matrix" values="0 0 0 0 0 0 0 0 0 0 0 0 0 0 0 0 0 0 127 0" result="hardAlpha"/>
<feOffset dx="7" dy="4"/>
<feComposite in2="hardAlpha" operator="out"/>
<feColorMatrix type="matrix" values="0 0 0 0 0.675 0 0 0 0 0.675 0 0 0 0 0.675 0 0 0 0.25 0"/>
<feBlend mode="normal" in2="BackgroundImageFix" result="effect1_dropShadow_3_4"/>
<feBlend mode="normal" in="SourceGraphic" in2="effect1_dropShadow_3_4" result="shape"/>
</filter>
</defs>
</svg>
